<?xml version="1.0" encoding="UTF-8"?>
<!DOCTYPE svg PUBLIC "-//W3C//DTD SVG 1.1//EN" "http://www.w3.org/Graphics/SVG/1.1/DTD/svg11.dtd">
<svg xmlns="http://www.w3.org/2000/svg" version="1.1" width="528px" height="485px" style="shape-rendering:geometricPrecision; text-rendering:geometricPrecision; image-rendering:optimizeQuality; fill-rule:evenodd; clip-rule:evenodd" xmlns:xlink="http://www.w3.org/1999/xlink">
<g><path style="opacity:1" fill="#efeeef" d="M 381.5,24.5 C 376.57,25.4351 371.57,25.4351 366.5,24.5C 366.04,27.9568 364.04,29.6235 360.5,29.5C 360.5,30.5 360.5,31.5 360.5,32.5C 355.873,32.3076 351.373,32.9742 347,34.5C 321.942,30.7649 297.108,32.2649 272.5,39C 266.712,40.5928 261.212,42.7595 256,45.5C 252.58,45.6496 249.08,45.3163 245.5,44.5C 244.614,45.325 244.281,46.325 244.5,47.5C 240.5,48.1667 236.5,48.8333 232.5,49.5C 232.5,50.5 232.5,51.5 232.5,52.5C 231.167,52.5 229.833,52.5 228.5,52.5C 228.5,51.5 228.5,50.5 228.5,49.5C 227.167,49.5 225.833,49.5 224.5,49.5C 224.5,50.5 224.5,51.5 224.5,52.5C 223.167,52.5 221.833,52.5 220.5,52.5C 220.5,53.5 220.5,54.5 220.5,55.5C 219.167,55.5 217.833,55.5 216.5,55.5C 216.5,54.5 216.5,53.5 216.5,52.5C 215.167,52.5 213.833,52.5 212.5,52.5C 212.649,53.552 212.483,54.552 212,55.5C 209.481,58.7323 206.481,61.399 203,63.5C 202.667,65.1667 202.333,66.8333 202,68.5C 201.577,67.0439 200.744,66.5439 199.5,67C 196.5,69.8333 193.5,72.6667 190.5,75.5C 189.735,74.3881 188.735,73.7214 187.5,73.5C 231.781,21.1252 287.781,1.6252 355.5,15C 364.599,17.3075 373.266,20.4742 381.5,24.5 Z"/></g>
<g><path style="opacity:0.999" fill="#f9f9f9" d="M 381.5,24.5 C 423.45,42.9518 452.617,73.6184 469,116.5C 483.307,157.302 482.974,197.969 468,238.5C 466.603,241.354 465.103,244.02 463.5,246.5C 461.75,247.659 460.75,249.326 460.5,251.5C 459.122,257.26 456.455,262.26 452.5,266.5C 450.107,267.353 448.774,269.019 448.5,271.5C 442.258,280.745 435.258,289.412 427.5,297.5C 424.833,299.5 422.5,301.833 420.5,304.5C 420.5,305.167 420.167,305.5 419.5,305.5C 417.251,306.08 415.585,307.413 414.5,309.5C 412.973,309.427 411.973,310.094 411.5,311.5C 409.973,311.427 408.973,312.094 408.5,313.5C 408.5,314.167 408.167,314.5 407.5,314.5C 405.973,314.427 404.973,315.094 404.5,316.5C 402.973,316.427 401.973,317.094 401.5,318.5C 401.158,319.338 400.492,319.672 399.5,319.5C 397.973,319.427 396.973,320.094 396.5,321.5C 392.818,324.008 388.818,326.008 384.5,327.5C 380.863,328.263 377.53,329.597 374.5,331.5C 371.215,331.928 368.215,332.928 365.5,334.5C 364.432,335.434 363.099,335.768 361.5,335.5C 358.848,335.41 356.515,336.076 354.5,337.5C 353.432,338.434 352.099,338.768 350.5,338.5C 346.878,338.322 343.544,338.989 340.5,340.5C 340.167,340.5 339.833,340.5 339.5,340.5C 327.181,341.253 314.848,341.586 302.5,341.5C 294.199,341.228 286.199,339.894 278.5,337.5C 275.781,336.087 272.781,335.42 269.5,335.5C 261.862,333.844 254.862,330.844 248.5,326.5C 246.151,324.659 243.485,323.326 240.5,322.5C 238.447,322.598 236.78,321.931 235.5,320.5C 233.178,318.336 230.511,316.669 227.5,315.5C 226.415,313.413 224.749,312.08 222.5,311.5C 222.027,310.094 221.027,309.427 219.5,309.5C 216.804,308.431 214.804,309.431 213.5,312.5C 207.43,317.063 201.764,322.229 196.5,328C 194.833,328.667 193.167,328.667 191.5,328C 181.667,318.167 171.833,308.333 162,298.5C 161.957,294.882 163.791,292.549 167.5,291.5C 168.5,291.167 169.167,290.5 169.5,289.5C 174.691,284.474 179.357,278.974 183.5,273C 151.875,226.634 144.375,176.467 161,122.5C 167.26,104.638 176.093,88.3051 187.5,73.5C 188.735,73.7214 189.735,74.3881 190.5,75.5C 193.5,72.6667 196.5,69.8333 199.5,67C 200.744,66.5439 201.577,67.0439 202,68.5C 202.333,66.8333 202.667,65.1667 203,63.5C 206.481,61.399 209.481,58.7323 212,55.5C 212.483,54.552 212.649,53.552 212.5,52.5C 213.833,52.5 215.167,52.5 216.5,52.5C 216.5,53.5 216.5,54.5 216.5,55.5C 217.833,55.5 219.167,55.5 220.5,55.5C 220.5,54.5 220.5,53.5 220.5,52.5C 221.833,52.5 223.167,52.5 224.5,52.5C 224.5,51.5 224.5,50.5 224.5,49.5C 225.833,49.5 227.167,49.5 228.5,49.5C 228.5,50.5 228.5,51.5 228.5,52.5C 229.833,52.5 231.167,52.5 232.5,52.5C 232.5,51.5 232.5,50.5 232.5,49.5C 236.5,48.8333 240.5,48.1667 244.5,47.5C 244.281,46.325 244.614,45.325 245.5,44.5C 249.08,45.3163 252.58,45.6496 256,45.5C 261.212,42.7595 266.712,40.5928 272.5,39C 297.108,32.2649 321.942,30.7649 347,34.5C 351.373,32.9742 355.873,32.3076 360.5,32.5C 360.5,31.5 360.5,30.5 360.5,29.5C 364.04,29.6235 366.04,27.9568 366.5,24.5C 371.57,25.4351 376.57,25.4351 381.5,24.5 Z M 324.5,41.5 C 324.833,41.5 325.167,41.5 325.5,41.5C 328.974,42.5249 332.64,43.1916 336.5,43.5C 338.764,44.2186 341.097,44.552 343.5,44.5C 348.272,46.278 353.272,47.6113 358.5,48.5C 360.936,49.871 363.603,50.871 366.5,51.5C 367.78,52.9313 369.447,53.5979 371.5,53.5C 374.331,55.4168 377.331,57.0834 380.5,58.5C 380.973,59.9063 381.973,60.573 383.5,60.5C 383.842,61.3382 384.508,61.6716 385.5,61.5C 385.973,62.9063 386.973,63.573 388.5,63.5C 388.973,64.9063 389.973,65.573 391.5,65.5C 391.973,66.9063 392.973,67.573 394.5,67.5C 395.262,69.2624 396.596,70.2624 398.5,70.5C 399.911,72.914 401.911,74.5806 404.5,75.5C 438.977,108.418 453.143,148.751 447,196.5C 432.724,267.781 389.39,306.114 317,311.5C 266.838,309.6 228.504,287.6 202,245.5C 178.811,202.543 177.644,159.043 198.5,115C 197.829,114.014 197.829,112.847 198.5,111.5C 199.833,111.5 200.5,110.833 200.5,109.5C 200.918,108.778 201.584,108.278 202.5,108C 201.402,107.23 201.402,106.397 202.5,105.5C 204.25,104.341 205.25,102.674 205.5,100.5C 208.19,97.4666 210.523,94.1332 212.5,90.5C 213.833,90.5 214.5,89.8333 214.5,88.5C 217.737,85.6509 220.737,82.6509 223.5,79.5C 226.089,78.5806 228.089,76.914 229.5,74.5C 230.167,74.5 230.5,74.1667 230.5,73.5C 232.749,72.9202 234.415,71.5869 235.5,69.5C 237.749,68.9202 239.415,67.5869 240.5,65.5C 242.027,65.573 243.027,64.9063 243.5,63.5C 246.331,62.9213 248.664,61.588 250.5,59.5C 252.027,59.573 253.027,58.9063 253.5,57.5C 254.492,57.6716 255.158,57.3382 255.5,56.5C 257.027,56.573 258.027,55.9063 258.5,54.5C 262.739,53.2042 266.739,51.5375 270.5,49.5C 272.553,49.5979 274.22,48.9313 275.5,47.5C 279.761,47.1016 283.761,46.1016 287.5,44.5C 287.833,44.5 288.167,44.5 288.5,44.5C 300.408,42.4733 312.408,41.4733 324.5,41.5 Z"/></g>
<g><path style="opacity:0.961" fill="#948f8f" d="M 325.5,41.5 C 329.489,41.1164 333.155,41.783 336.5,43.5C 332.64,43.1916 328.974,42.5249 325.5,41.5 Z"/></g>
<g><path style="opacity:0.584" fill="#8b8988" d="M 324.5,41.5 C 312.408,41.4733 300.408,42.4733 288.5,44.5C 300.311,40.8557 312.311,39.8557 324.5,41.5 Z"/></g>
<g><path style="opacity:0.993" fill="#f9f8f8" d="M 475.5,42.5 C 491.77,40.9373 499.27,48.2706 498,64.5C 492.208,77.2434 483.041,80.4101 470.5,74C 462.966,66.0419 462.133,57.5419 468,48.5C 470.478,46.3606 472.978,44.3606 475.5,42.5 Z"/></g>
<g><path style="opacity:0.89" fill="#898788" d="M 343.5,44.5 C 348.899,44.7647 353.899,46.098 358.5,48.5C 353.272,47.6113 348.272,46.278 343.5,44.5 Z"/></g>
<g><path style="opacity:0.471" fill="#6e6d6c" d="M 287.5,44.5 C 283.761,46.1016 279.761,47.1016 275.5,47.5C 279.163,45.5841 283.163,44.5841 287.5,44.5 Z"/></g>
<g><path style="opacity:0.529" fill="#777375" d="M 275.5,47.5 C 274.22,48.9313 272.553,49.5979 270.5,49.5C 271.78,48.0687 273.447,47.4021 275.5,47.5 Z"/></g>
<g><path style="opacity:0.514" fill="#727273" d="M 366.5,51.5 C 368.553,51.4021 370.22,52.0687 371.5,53.5C 369.447,53.5979 367.78,52.9313 366.5,51.5 Z"/></g>
<g><path style="opacity:0.439" fill="#5f5d5d" d="M 258.5,54.5 C 258.027,55.9063 257.027,56.573 255.5,56.5C 255.973,55.0937 256.973,54.427 258.5,54.5 Z"/></g>
<g><path style="opacity:0.275" fill="#676365" d="M 253.5,57.5 C 253.027,58.9063 252.027,59.573 250.5,59.5C 250.973,58.0937 251.973,57.427 253.5,57.5 Z"/></g>
<g><path style="opacity:0.496" fill="#6a6a6a" d="M 380.5,58.5 C 382.027,58.427 383.027,59.0937 383.5,60.5C 381.973,60.573 380.973,59.9063 380.5,58.5 Z"/></g>
<g><path style="opacity:0.486" fill="#69696c" d="M 385.5,61.5 C 387.027,61.427 388.027,62.0937 388.5,63.5C 386.973,63.573 385.973,62.9063 385.5,61.5 Z"/></g>
<g><path style="opacity:1" fill="#f0efef" d="M 269.5,62.5 C 278.509,62.6887 281.343,67.022 278,75.5C 272.219,78.3229 266.386,81.1563 260.5,84C 258.018,84.6771 256.185,83.8437 255,81.5C 253.631,76.5626 254.797,72.396 258.5,69C 262.096,66.5394 265.763,64.3727 269.5,62.5 Z"/></g>
<g><path style="opacity:0.153" fill="#716c71" d="M 243.5,63.5 C 243.027,64.9063 242.027,65.573 240.5,65.5C 240.973,64.0937 241.973,63.427 243.5,63.5 Z"/></g>
<g><path style="opacity:0.475" fill="#626262" d="M 388.5,63.5 C 390.027,63.427 391.027,64.0937 391.5,65.5C 389.973,65.573 388.973,64.9063 388.5,63.5 Z"/></g>
<g><path style="opacity:0.439" fill="#5c5c5c" d="M 391.5,65.5 C 393.027,65.427 394.027,66.0937 394.5,67.5C 392.973,67.573 391.973,66.9063 391.5,65.5 Z"/></g>
<g><path style="opacity:0.027" fill="#6f6c6f" d="M 240.5,65.5 C 239.415,67.5869 237.749,68.9202 235.5,69.5C 236.585,67.4131 238.251,66.0798 240.5,65.5 Z"/></g>
<g><path style="opacity:0.494" fill="#606061" d="M 394.5,67.5 C 396.404,67.7376 397.738,68.7376 398.5,70.5C 396.596,70.2624 395.262,69.2624 394.5,67.5 Z"/></g>
<g><path style="opacity:0.3" fill="#6b676b" d="M 235.5,69.5 C 234.415,71.5869 232.749,72.9202 230.5,73.5C 231.585,71.4131 233.251,70.0798 235.5,69.5 Z"/></g>
<g><path style="opacity:0.471" fill="#616163" d="M 398.5,70.5 C 401.089,71.4194 403.089,73.086 404.5,75.5C 401.911,74.5806 399.911,72.914 398.5,70.5 Z"/></g>
<g><path style="opacity:0.4" fill="#5c5a5b" d="M 229.5,74.5 C 228.089,76.914 226.089,78.5806 223.5,79.5C 224.911,77.086 226.911,75.4194 229.5,74.5 Z"/></g>
<g><path style="opacity:0.004" fill="#272726" d="M 214.5,88.5 C 214.5,89.8333 213.833,90.5 212.5,90.5C 212.833,89.5 213.5,88.8333 214.5,88.5 Z"/></g>
<g><path style="opacity:0.999" fill="#fcfcfc" d="M 364.5,269.5 C 365.209,268.596 366.209,268.263 367.5,268.5C 366.389,260.166 364.056,252.166 360.5,244.5C 353.987,229.81 348.321,214.81 343.5,199.5C 339.909,188.311 335.742,177.311 331,166.5C 330.833,165.667 330.667,164.833 330.5,164C 331.074,162.393 331.74,160.893 332.5,159.5C 332.995,157.518 333.495,155.518 334,153.5C 334.178,133.123 334.678,112.79 335.5,92.5C 336.025,91.8076 336.692,91.3076 337.5,91C 347.511,90.667 357.511,91.0004 367.5,92C 369.492,92.5743 370.992,93.741 372,95.5C 372.667,152.5 372.667,209.5 372,266.5C 370.005,268.747 367.505,269.747 364.5,269.5 Z"/></g>
<g><path style="opacity:1" fill="#efefee" d="M 225.5,101.5 C 226.5,101.167 227.167,100.5 227.5,99.5C 233.211,90.2318 240.045,89.2318 248,96.5C 249.297,101.117 248.13,104.95 244.5,108C 241.316,109.504 238.149,111.004 235,112.5C 232.769,117.731 230.103,122.731 227,127.5C 223.81,131.005 220.31,131.338 216.5,128.5C 215.197,125.957 214.197,123.29 213.5,120.5C 213.977,119.522 214.643,118.689 215.5,118C 214.366,116.984 214.699,116.317 216.5,116C 215.366,114.984 215.699,114.317 217.5,114C 216.366,112.984 216.699,112.317 218.5,112C 218.167,111.667 217.833,111.333 217.5,111C 220.391,108.046 223.057,104.88 225.5,101.5 Z"/></g>
<g><path style="opacity:1" fill="#fafafa" d="M 270.5,92.5 C 280.839,92.3335 291.172,92.5002 301.5,93C 290.152,93.1675 278.819,93.6675 267.5,94.5C 269.135,99.1051 271.135,103.438 273.5,107.5C 278.743,124.83 284.743,141.83 291.5,158.5C 296.1,173.968 301.1,189.301 306.5,204.5C 305.833,204.833 305.167,205.167 304.5,205.5C 304.291,204.078 303.791,202.745 303,201.5C 302.667,201.833 302.333,202.167 302,202.5C 301.501,207.155 301.334,211.821 301.5,216.5C 301.34,219.884 301.673,223.217 302.5,226.5C 301.704,239.141 301.204,251.807 301,264.5C 290.293,266.076 279.793,267.743 269.5,269.5C 266.123,268.915 264.29,266.915 264,263.5C 263.5,206.501 263.333,149.501 263.5,92.5C 265.833,92.5 268.167,92.5 270.5,92.5 Z"/></g>
<g><path style="opacity:1" fill="#aca6a4" d="M 270.5,92.5 C 281.321,91.5054 292.321,91.1721 303.5,91.5C 303.993,93.8056 304.326,96.139 304.5,98.5C 304.212,101.866 304.046,105.2 304,108.5C 305.156,107.007 305.99,107.174 306.5,109C 304.943,112.996 304.109,117.162 304,121.5C 300.591,123.397 297.257,125.397 294,127.5C 292.409,130.095 290.909,132.762 289.5,135.5C 290.046,137.135 290.38,138.801 290.5,140.5C 289.448,140.351 288.448,140.517 287.5,141C 288.337,142.011 288.67,143.178 288.5,144.5C 286.163,142.035 284.663,139.035 284,135.5C 283.515,124.86 280.015,115.526 273.5,107.5C 271.135,103.438 269.135,99.1051 267.5,94.5C 278.819,93.6675 290.152,93.1675 301.5,93C 291.172,92.5002 280.839,92.3335 270.5,92.5 Z"/></g>
<g><path style="opacity:0.02" fill="#3e3e3e" d="M 227.5,99.5 C 227.167,100.5 226.5,101.167 225.5,101.5C 225.062,101.565 224.728,101.399 224.5,101C 225.244,99.9614 226.244,99.4614 227.5,99.5 Z"/></g>
<g><path style="opacity:0.275" fill="#353631" d="M 205.5,100.5 C 205.25,102.674 204.25,104.341 202.5,105.5C 202.75,103.326 203.75,101.659 205.5,100.5 Z"/></g>
<g><path style="opacity:0.008" fill="#262625" d="M 200.5,109.5 C 200.5,110.833 199.833,111.5 198.5,111.5C 198.833,110.5 199.5,109.833 200.5,109.5 Z"/></g>
<g><path style="opacity:1" fill="#8d8c8b" d="M 273.5,107.5 C 280.015,115.526 283.515,124.86 284,135.5C 284.663,139.035 286.163,142.035 288.5,144.5C 289.784,148.985 290.784,153.651 291.5,158.5C 284.743,141.83 278.743,124.83 273.5,107.5 Z"/></g>
<g><path style="opacity:1" fill="#b6b4b3" d="M 304.5,98.5 C 307.064,107.738 310.398,116.738 314.5,125.5C 314.579,126.93 314.246,128.264 313.5,129.5C 313.846,130.696 314.346,130.696 315,129.5C 315.667,130.833 315.667,132.167 315,133.5C 314.586,133.043 314.086,132.709 313.5,132.5C 312.281,133.646 310.948,134.646 309.5,135.5C 308.072,139.88 306.738,144.213 305.5,148.5C 304.167,148.5 302.833,148.5 301.5,148.5C 301.061,159.849 301.061,171.182 301.5,182.5C 302.5,182.5 303.5,182.5 304.5,182.5C 304.5,183.833 304.5,185.167 304.5,186.5C 307.406,186.903 309.239,188.569 310,191.5C 310.39,195.514 310.89,199.514 311.5,203.5C 311.379,204.894 311.046,206.228 310.5,207.5C 313.304,214.047 315.804,220.714 318,227.5C 318.789,229.712 318.622,231.712 317.5,233.5C 315.189,223.223 311.523,213.557 306.5,204.5C 301.1,189.301 296.1,173.968 291.5,158.5C 290.784,153.651 289.784,148.985 288.5,144.5C 288.67,143.178 288.337,142.011 287.5,141C 288.448,140.517 289.448,140.351 290.5,140.5C 290.38,138.801 290.046,137.135 289.5,135.5C 290.909,132.762 292.409,130.095 294,127.5C 297.257,125.397 300.591,123.397 304,121.5C 304.109,117.162 304.943,112.996 306.5,109C 305.99,107.174 305.156,107.007 304,108.5C 304.046,105.2 304.212,101.866 304.5,98.5 Z"/></g>
<g><path style="opacity:1" fill="#c0bfbe" d="M 314.5,125.5 C 316.597,130.96 318.43,136.627 320,142.5C 322.519,147.044 324.852,151.711 327,156.5C 327.833,157.5 328.667,158.5 329.5,159.5C 330.298,159.043 330.631,158.376 330.5,157.5C 331.167,158.167 331.833,158.833 332.5,159.5C 331.74,160.893 331.074,162.393 330.5,164C 330.667,164.833 330.833,165.667 331,166.5C 335.742,177.311 339.909,188.311 343.5,199.5C 341.827,204.793 339.494,209.96 336.5,215C 339.833,218.333 341.833,222.333 342.5,227C 344.145,233.295 343.811,239.461 341.5,245.5C 339.367,247.091 337.701,249.091 336.5,251.5C 333.893,252.318 331.226,252.818 328.5,253C 327.874,253.75 327.374,254.584 327,255.5C 326.041,251.832 324.541,249.165 322.5,247.5C 320.846,242.918 319.179,238.252 317.5,233.5C 318.622,231.712 318.789,229.712 318,227.5C 315.804,220.714 313.304,214.047 310.5,207.5C 311.046,206.228 311.379,204.894 311.5,203.5C 310.89,199.514 310.39,195.514 310,191.5C 309.239,188.569 307.406,186.903 304.5,186.5C 304.5,185.167 304.5,183.833 304.5,182.5C 303.5,182.5 302.5,182.5 301.5,182.5C 301.061,171.182 301.061,159.849 301.5,148.5C 302.833,148.5 304.167,148.5 305.5,148.5C 306.738,144.213 308.072,139.88 309.5,135.5C 310.948,134.646 312.281,133.646 313.5,132.5C 314.086,132.709 314.586,133.043 315,133.5C 315.667,132.167 315.667,130.833 315,129.5C 314.346,130.696 313.846,130.696 313.5,129.5C 314.246,128.264 314.579,126.93 314.5,125.5 Z"/></g>
<g><path style="opacity:0.999" fill="#f2f1f0" d="M 205.5,140.5 C 211.526,139.676 216.693,141.342 221,145.5C 221.933,150.938 219.766,154.772 214.5,157C 207.683,158.371 203.683,155.537 202.5,148.5C 203.43,146.895 203.43,145.395 202.5,144C 203.338,142.845 204.338,141.678 205.5,140.5 Z"/></g>
<g><path style="opacity:0.988" fill="#eeecea" d="M 330.5,157.5 C 330.631,158.376 330.298,159.043 329.5,159.5C 328.667,158.5 327.833,157.5 327,156.5C 324.852,151.711 322.519,147.044 320,142.5C 318.43,136.627 316.597,130.96 314.5,125.5C 310.398,116.738 307.064,107.738 304.5,98.5C 304.326,96.139 303.993,93.8056 303.5,91.5C 304.688,90.3157 305.855,90.3157 307,91.5C 313.947,113.843 321.78,135.843 330.5,157.5 Z"/></g>
<g><path style="opacity:1" fill="#e7e8e9" d="M 210.5,171.5 C 210.586,172.496 210.252,173.329 209.5,174C 211.158,174.725 211.658,175.892 211,177.5C 208.694,181.366 205.527,182.366 201.5,180.5C 199.107,174.619 200.94,170.953 207,169.5C 208.699,169.387 209.866,170.053 210.5,171.5 Z"/></g>
<g><path style="opacity:0.706" fill="#818081" d="M 210.5,171.5 C 214.627,176.654 213.793,180.987 208,184.5C 205.122,184.169 202.956,182.836 201.5,180.5C 205.527,182.366 208.694,181.366 211,177.5C 211.658,175.892 211.158,174.725 209.5,174C 210.252,173.329 210.586,172.496 210.5,171.5 Z"/></g>
<g><path style="opacity:1" fill="#3a3a37" d="M 304.5,205.5 C 303.833,205.5 303.5,205.833 303.5,206.5C 302.833,209.833 302.167,213.167 301.5,216.5C 301.334,211.821 301.501,207.155 302,202.5C 302.333,202.167 302.667,201.833 303,201.5C 303.791,202.745 304.291,204.078 304.5,205.5 Z"/></g>
<g><path style="opacity:0.999" fill="#e2e2e0" d="M 306.5,204.5 C 311.523,213.557 315.189,223.223 317.5,233.5C 319.179,238.252 320.846,242.918 322.5,247.5C 324.024,253.573 325.857,259.573 328,265.5C 329.31,266.897 330.81,267.897 332.5,268.5C 332.167,268.5 331.833,268.5 331.5,268.5C 329.712,268.785 328.045,268.452 326.5,267.5C 319.989,248.842 313.155,229.509 306,209.5C 305.302,208.309 304.469,207.309 303.5,206.5C 304.167,206.5 304.5,206.167 304.5,205.5C 305.167,205.167 305.833,204.833 306.5,204.5 Z"/></g>
<g><path style="opacity:1" fill="#b6b2b2" d="M 343.5,199.5 C 348.321,214.81 353.987,229.81 360.5,244.5C 359.158,252.105 357.491,259.771 355.5,267.5C 347.862,268.497 340.196,268.831 332.5,268.5C 330.81,267.897 329.31,266.897 328,265.5C 325.857,259.573 324.024,253.573 322.5,247.5C 324.541,249.165 326.041,251.832 327,255.5C 327.374,254.584 327.874,253.75 328.5,253C 331.226,252.818 333.893,252.318 336.5,251.5C 337.701,249.091 339.367,247.091 341.5,245.5C 343.811,239.461 344.145,233.295 342.5,227C 341.833,222.333 339.833,218.333 336.5,215C 339.494,209.96 341.827,204.793 343.5,199.5 Z"/></g>
<g><path style="opacity:0.082" fill="#4c4141" d="M 463.5,246.5 C 463.25,248.674 462.25,250.341 460.5,251.5C 460.75,249.326 461.75,247.659 463.5,246.5 Z"/></g>
<g><path style="opacity:1" fill="#988a8b" d="M 360.5,244.5 C 364.056,252.166 366.389,260.166 367.5,268.5C 366.209,268.263 365.209,268.596 364.5,269.5C 353.321,269.828 342.321,269.495 331.5,268.5C 331.833,268.5 332.167,268.5 332.5,268.5C 340.196,268.831 347.862,268.497 355.5,267.5C 357.491,259.771 359.158,252.105 360.5,244.5 Z"/></g>
<g><path style="opacity:0.745" fill="#888a81" d="M 452.5,266.5 C 451.92,268.749 450.587,270.415 448.5,271.5C 448.774,269.019 450.107,267.353 452.5,266.5 Z"/></g>
<g><path style="opacity:0.153" fill="#3c3c3c" d="M 169.5,289.5 C 169.167,290.5 168.5,291.167 167.5,291.5C 167.5,290.167 168.167,289.5 169.5,289.5 Z"/></g>
<g><path style="opacity:0.02" fill="#636266" d="M 427.5,297.5 C 426.167,300.833 423.833,303.167 420.5,304.5C 422.5,301.833 424.833,299.5 427.5,297.5 Z"/></g>
<g><path style="opacity:0.998" fill="#f3f3f3" d="M 148.5,306.5 C 150.649,307.736 152.982,308.736 155.5,309.5C 158.167,310.833 160.167,312.833 161.5,315.5C 160.5,315.5 159.5,315.5 158.5,315.5C 158.5,314.5 158.5,313.5 158.5,312.5C 156.516,312.617 154.85,311.95 153.5,310.5C 147.961,312.125 142.295,312.792 136.5,312.5C 136.167,315.167 135.833,317.833 135.5,320.5C 133.146,320.838 130.813,321.338 128.5,322C 129.451,322.718 129.617,323.551 129,324.5C 125.557,327.943 122.557,330.943 120,333.5C 114.715,338.284 109.548,343.284 104.5,348.5C 100.472,351.532 96.8056,354.865 93.5,358.5C 92.8333,357.833 92.1667,357.167 91.5,356.5C 88.4405,360.838 86.1072,365.504 84.5,370.5C 81.0432,370.96 79.3765,372.96 79.5,376.5C 78.5,376.5 77.5,376.5 76.5,376.5C 76.5,377.833 76.5,379.167 76.5,380.5C 75.5,380.5 74.5,380.5 73.5,380.5C 73.6567,381.873 73.49,383.207 73,384.5C 70.6667,386.833 68.3333,389.167 66,391.5C 65.5065,393.134 65.3398,394.801 65.5,396.5C 62.5832,397.291 59.7499,397.291 57,396.5C 57.2077,400.771 55.2077,402.771 51,402.5C 49.5,402.333 48,402.167 46.5,402C 48.6082,399.984 48.9416,397.817 47.5,395.5C 55.1667,387.167 63.1667,379.167 71.5,371.5C 72.8221,371.33 73.9887,371.663 75,372.5C 76.487,371.747 76.6537,370.914 75.5,370C 79.8382,365.924 83.1716,361.757 85.5,357.5C 102.06,339.438 119.727,322.605 138.5,307C 141.817,306.502 145.15,306.335 148.5,306.5 Z"/></g>
<g><path style="opacity:0.173" fill="#292726" d="M 148.5,306.5 C 151.491,306.166 153.824,307.166 155.5,309.5C 152.982,308.736 150.649,307.736 148.5,306.5 Z"/></g>
<g><path style="opacity:0.173" fill="#676565" d="M 419.5,305.5 C 418.415,307.587 416.749,308.92 414.5,309.5C 415.585,307.413 417.251,306.08 419.5,305.5 Z"/></g>
<g><path style="opacity:0.314" fill="#717171" d="M 219.5,309.5 C 221.027,309.427 222.027,310.094 222.5,311.5C 220.973,311.573 219.973,310.906 219.5,309.5 Z"/></g>
<g><path style="opacity:0.271" fill="#6b6b67" d="M 414.5,309.5 C 414.027,310.906 413.027,311.573 411.5,311.5C 411.973,310.094 412.973,309.427 414.5,309.5 Z"/></g>
<g><path style="opacity:0.998" fill="#fcfcfc" d="M 161.5,315.5 C 167.167,320.5 172.5,325.833 177.5,331.5C 177.427,333.027 178.094,334.027 179.5,334.5C 184.804,338.913 186.637,344.58 185,351.5C 181.941,356.037 178.775,360.37 175.5,364.5C 173.596,364.738 172.262,365.738 171.5,367.5C 166.175,372.324 161.009,377.324 156,382.5C 153.05,387.118 149.716,391.452 146,395.5C 135.617,405.253 125.45,415.253 115.5,425.5C 114.167,426.167 113.167,427.167 112.5,428.5C 108.862,432.474 105.195,436.474 101.5,440.5C 100.29,440.932 99.2905,441.599 98.5,442.5C 97.2209,445.652 94.8875,447.652 91.5,448.5C 87.9268,450.784 84.2601,452.784 80.5,454.5C 77.5718,454.565 74.9052,455.232 72.5,456.5C 69.7484,456.762 66.7484,456.762 63.5,456.5C 59.9192,455.193 56.2526,453.859 52.5,452.5C 33.6296,437.665 30.4629,419.998 43,399.5C 44.3712,397.959 45.8712,396.625 47.5,395.5C 48.9416,397.817 48.6082,399.984 46.5,402C 48,402.167 49.5,402.333 51,402.5C 55.2077,402.771 57.2077,400.771 57,396.5C 59.7499,397.291 62.5832,397.291 65.5,396.5C 65.3398,394.801 65.5065,393.134 66,391.5C 68.3333,389.167 70.6667,386.833 73,384.5C 73.49,383.207 73.6567,381.873 73.5,380.5C 74.5,380.5 75.5,380.5 76.5,380.5C 76.5,379.167 76.5,377.833 76.5,376.5C 77.5,376.5 78.5,376.5 79.5,376.5C 79.3765,372.96 81.0432,370.96 84.5,370.5C 86.1072,365.504 88.4405,360.838 91.5,356.5C 92.1667,357.167 92.8333,357.833 93.5,358.5C 96.8056,354.865 100.472,351.532 104.5,348.5C 109.548,343.284 114.715,338.284 120,333.5C 122.557,330.943 125.557,327.943 129,324.5C 129.617,323.551 129.451,322.718 128.5,322C 130.813,321.338 133.146,320.838 135.5,320.5C 135.833,317.833 136.167,315.167 136.5,312.5C 142.295,312.792 147.961,312.125 153.5,310.5C 154.85,311.95 156.516,312.617 158.5,312.5C 158.5,313.5 158.5,314.5 158.5,315.5C 159.5,315.5 160.5,315.5 161.5,315.5 Z"/></g>
<g><path style="opacity:0.184" fill="#524f50" d="M 219.5,309.5 C 217.5,310.5 215.5,311.5 213.5,312.5C 214.804,309.431 216.804,308.431 219.5,309.5 Z"/></g>
<g><path style="opacity:0.278" fill="#747171" d="M 411.5,311.5 C 411.027,312.906 410.027,313.573 408.5,313.5C 408.973,312.094 409.973,311.427 411.5,311.5 Z"/></g>
<g><path style="opacity:0.349" fill="#838383" d="M 222.5,311.5 C 224.749,312.08 226.415,313.413 227.5,315.5C 225.251,314.92 223.585,313.587 222.5,311.5 Z"/></g>
<g><path style="opacity:0.306" fill="#716a6d" d="M 407.5,314.5 C 407.027,315.906 406.027,316.573 404.5,316.5C 404.973,315.094 405.973,314.427 407.5,314.5 Z"/></g>
<g><path style="opacity:0.298" fill="#736d6d" d="M 404.5,316.5 C 404.027,317.906 403.027,318.573 401.5,318.5C 401.973,317.094 402.973,316.427 404.5,316.5 Z"/></g>
<g><path style="opacity:0.306" fill="#828080" d="M 227.5,315.5 C 230.511,316.669 233.178,318.336 235.5,320.5C 232.151,319.831 229.484,318.164 227.5,315.5 Z"/></g>
<g><path style="opacity:0.29" fill="#747172" d="M 399.5,319.5 C 399.027,320.906 398.027,321.573 396.5,321.5C 396.973,320.094 397.973,319.427 399.5,319.5 Z"/></g>
<g><path style="opacity:0.314" fill="#7e7e7f" d="M 240.5,322.5 C 243.485,323.326 246.151,324.659 248.5,326.5C 245.246,326.206 242.579,324.873 240.5,322.5 Z"/></g>
<g><path style="opacity:0.314" fill="#827f7f" d="M 384.5,327.5 C 381.63,329.794 378.297,331.128 374.5,331.5C 377.53,329.597 380.863,328.263 384.5,327.5 Z"/></g>
<g><path style="opacity:0.114" fill="#2e2e29" d="M 177.5,331.5 C 178.906,331.973 179.573,332.973 179.5,334.5C 178.094,334.027 177.427,333.027 177.5,331.5 Z"/></g>
<g><path style="opacity:0.341" fill="#848283" d="M 374.5,331.5 C 371.916,333.472 368.916,334.472 365.5,334.5C 368.215,332.928 371.215,331.928 374.5,331.5 Z"/></g>
<g><path style="opacity:0.596" fill="#929192" d="M 269.5,335.5 C 272.781,335.42 275.781,336.087 278.5,337.5C 275.219,337.58 272.219,336.913 269.5,335.5 Z"/></g>
<g><path style="opacity:0.263" fill="#716d6e" d="M 361.5,335.5 C 359.485,336.924 357.152,337.59 354.5,337.5C 356.515,336.076 358.848,335.41 361.5,335.5 Z"/></g>
<g><path style="opacity:0.349" fill="#848383" d="M 350.5,338.5 C 347.411,339.785 344.078,340.451 340.5,340.5C 343.544,338.989 346.878,338.322 350.5,338.5 Z"/></g>
<g><path style="opacity:0.271" fill="#858383" d="M 339.5,340.5 C 332.052,341.952 324.385,342.619 316.5,342.5C 311.654,342.499 306.988,342.166 302.5,341.5C 314.848,341.586 327.181,341.253 339.5,340.5 Z"/></g>
<g><path style="opacity:0.877" fill="#b8b8b8" d="M 85.5,357.5 C 83.1716,361.757 79.8382,365.924 75.5,370C 76.6537,370.914 76.487,371.747 75,372.5C 73.9887,371.663 72.8221,371.33 71.5,371.5C 75.8604,366.473 80.5271,361.806 85.5,357.5 Z"/></g>
<g><path style="opacity:0.09" fill="#262626" d="M 175.5,364.5 C 174.738,366.262 173.404,367.262 171.5,367.5C 172.262,365.738 173.596,364.738 175.5,364.5 Z"/></g>
<g><path style="opacity:0.012" fill="#4b4b4a" d="M 115.5,425.5 C 115.5,427.5 114.5,428.5 112.5,428.5C 113.167,427.167 114.167,426.167 115.5,425.5 Z"/></g>
<g><path style="opacity:0.004" fill="#343434" d="M 101.5,440.5 C 101.179,442.048 100.179,442.715 98.5,442.5C 99.2905,441.599 100.29,440.932 101.5,440.5 Z"/></g>
<g><path style="opacity:0.024" fill="#4b4a4a" d="M 91.5,448.5 C 89.4084,452.066 86.2417,454.399 82,455.5C 81.6174,454.944 81.1174,454.611 80.5,454.5C 84.2601,452.784 87.9268,450.784 91.5,448.5 Z"/></g>
<g><path style="opacity:0.212" fill="#6c6d6e" d="M 52.5,452.5 C 56.2526,453.859 59.9192,455.193 63.5,456.5C 59.0286,457.564 55.3619,456.23 52.5,452.5 Z"/></g>
<g><path style="opacity:0.008" fill="#5f5f61" d="M 80.5,454.5 C 80.631,455.239 80.4643,455.906 80,456.5C 77.6658,457.17 75.1658,457.17 72.5,456.5C 74.9052,455.232 77.5718,454.565 80.5,454.5 Z"/></g>
</svg>
